<svg xmlns="http://www.w3.org/2000/svg"
    xmlns:xlink="http://www.w3.org/1999/xlink">
    <line x1="0"  y1="0" x2="0"   y2="15" style="stroke:black;stroke-width:1"/>
    <line x1="0"  y1="0" x2="15"   y2="0" style="stroke:black;stroke-width:1"/>
    <line x1="0"  y1="15" x2="15"   y2="15" style="stroke:black;stroke-width:1"/>
    <line x1="15"  y1="0" x2="30"   y2="0" style="stroke:black;stroke-width:1"/>
    <line x1="15"  y1="15" x2="30"   y2="15" style="stroke:black;stroke-width:1"/>
    <line x1="30"  y1="0" x2="45"   y2="0" style="stroke:black;stroke-width:1"/>
    <line x1="30"  y1="15" x2="45"   y2="15" style="stroke:black;stroke-width:1"/>
    <line x1="45"  y1="0" x2="60"   y2="0" style="stroke:black;stroke-width:1"/>
    <line x1="60"  y1="0" x2="75"   y2="0" style="stroke:black;stroke-width:1"/>
    <line x1="60"  y1="15" x2="75"   y2="15" style="stroke:black;stroke-width:1"/>
    <line x1="75"  y1="0" x2="90"   y2="0" style="stroke:black;stroke-width:1"/>
    <line x1="90"  y1="0" x2="105"   y2="0" style="stroke:black;stroke-width:1"/>
    <line x1="90"  y1="15" x2="105"   y2="15" style="stroke:black;stroke-width:1"/>
    <line x1="105"  y1="0" x2="120"   y2="0" style="stroke:black;stroke-width:1"/>
    <line x1="120"  y1="0" x2="135"   y2="0" style="stroke:black;stroke-width:1"/>
    <line x1="135"  y1="0" x2="135"   y2="15" style="stroke:black;stroke-width:1"/>
    <line x1="120"  y1="15" x2="135"   y2="15" style="stroke:black;stroke-width:1"/>
    <line x1="135"  y1="0" x2="135"   y2="15" style="stroke:black;stroke-width:1"/>
    <line x1="135"  y1="0" x2="150"   y2="0" style="stroke:black;stroke-width:1"/>
    <line x1="150"  y1="0" x2="165"   y2="0" style="stroke:black;stroke-width:1"/>
    <line x1="165"  y1="0" x2="165"   y2="15" style="stroke:black;stroke-width:1"/>
    <line x1="150"  y1="15" x2="165"   y2="15" style="stroke:black;stroke-width:1"/>
    <line x1="165"  y1="0" x2="165"   y2="15" style="stroke:black;stroke-width:1"/>
    <line x1="165"  y1="0" x2="180"   y2="0" style="stroke:black;stroke-width:1"/>
    <line x1="180"  y1="0" x2="180"   y2="15" style="stroke:black;stroke-width:1"/>
    <line x1="180"  y1="0" x2="180"   y2="15" style="stroke:black;stroke-width:1"/>
    <line x1="180"  y1="0" x2="195"   y2="0" style="stroke:black;stroke-width:1"/>
    <line x1="195"  y1="0" x2="195"   y2="15" style="stroke:black;stroke-width:1"/>
    <line x1="195"  y1="0" x2="195"   y2="15" style="stroke:black;stroke-width:1"/>
    <line x1="195"  y1="0" x2="210"   y2="0" style="stroke:black;stroke-width:1"/>
    <line x1="210"  y1="0" x2="210"   y2="15" style="stroke:black;stroke-width:1"/>
    <line x1="210"  y1="0" x2="210"   y2="15" style="stroke:black;stroke-width:1"/>
    <line x1="210"  y1="0" x2="225"   y2="0" style="stroke:black;stroke-width:1"/>
    <line x1="225"  y1="0" x2="225"   y2="15" style="stroke:black;stroke-width:1"/>
    <line x1="0"  y1="15" x2="0"   y2="30" style="stroke:black;stroke-width:1"/>
    <line x1="0"  y1="15" x2="15"   y2="15" style="stroke:black;stroke-width:1"/>
    <line x1="15"  y1="15" x2="15"   y2="30" style="stroke:black;stroke-width:1"/>
    <line x1="15"  y1="15" x2="15"   y2="30" style="stroke:black;stroke-width:1"/>
    <line x1="15"  y1="15" x2="30"   y2="15" style="stroke:black;stroke-width:1"/>
    <line x1="15"  y1="30" x2="30"   y2="30" style="stroke:black;stroke-width:1"/>
    <line x1="30"  y1="15" x2="45"   y2="15" style="stroke:black;stroke-width:1"/>
    <line x1="30"  y1="30" x2="45"   y2="30" style="stroke:black;stroke-width:1"/>
    <line x1="60"  y1="15" x2="60"   y2="30" style="stroke:black;stroke-width:1"/>
    <line x1="45"  y1="30" x2="60"   y2="30" style="stroke:black;stroke-width:1"/>
    <line x1="60"  y1="15" x2="60"   y2="30" style="stroke:black;stroke-width:1"/>
    <line x1="60"  y1="15" x2="75"   y2="15" style="stroke:black;stroke-width:1"/>
    <line x1="90"  y1="15" x2="90"   y2="30" style="stroke:black;stroke-width:1"/>
    <line x1="75"  y1="30" x2="90"   y2="30" style="stroke:black;stroke-width:1"/>
    <line x1="90"  y1="15" x2="90"   y2="30" style="stroke:black;stroke-width:1"/>
    <line x1="90"  y1="15" x2="105"   y2="15" style="stroke:black;stroke-width:1"/>
    <line x1="105"  y1="15" x2="105"   y2="30" style="stroke:black;stroke-width:1"/>
    <line x1="105"  y1="15" x2="105"   y2="30" style="stroke:black;stroke-width:1"/>
    <line x1="120"  y1="15" x2="120"   y2="30" style="stroke:black;stroke-width:1"/>
    <line x1="120"  y1="15" x2="120"   y2="30" style="stroke:black;stroke-width:1"/>
    <line x1="120"  y1="15" x2="135"   y2="15" style="stroke:black;stroke-width:1"/>
    <line x1="135"  y1="15" x2="135"   y2="30" style="stroke:black;stroke-width:1"/>
    <line x1="135"  y1="15" x2="135"   y2="30" style="stroke:black;stroke-width:1"/>
    <line x1="135"  y1="30" x2="150"   y2="30" style="stroke:black;stroke-width:1"/>
    <line x1="150"  y1="15" x2="165"   y2="15" style="stroke:black;stroke-width:1"/>
    <line x1="165"  y1="30" x2="180"   y2="30" style="stroke:black;stroke-width:1"/>
    <line x1="180"  y1="30" x2="195"   y2="30" style="stroke:black;stroke-width:1"/>
    <line x1="195"  y1="30" x2="210"   y2="30" style="stroke:black;stroke-width:1"/>
    <line x1="225"  y1="15" x2="225"   y2="30" style="stroke:black;stroke-width:1"/>
    <line x1="210"  y1="30" x2="225"   y2="30" style="stroke:black;stroke-width:1"/>
    <line x1="0"  y1="30" x2="0"   y2="45" style="stroke:black;stroke-width:1"/>
    <line x1="15"  y1="30" x2="30"   y2="30" style="stroke:black;stroke-width:1"/>
    <line x1="30"  y1="30" x2="30"   y2="45" style="stroke:black;stroke-width:1"/>
    <line x1="15"  y1="45" x2="30"   y2="45" style="stroke:black;stroke-width:1"/>
    <line x1="30"  y1="30" x2="30"   y2="45" style="stroke:black;stroke-width:1"/>
    <line x1="30"  y1="30" x2="45"   y2="30" style="stroke:black;stroke-width:1"/>
    <line x1="45"  y1="30" x2="60"   y2="30" style="stroke:black;stroke-width:1"/>
    <line x1="60"  y1="30" x2="60"   y2="45" style="stroke:black;stroke-width:1"/>
    <line x1="60"  y1="30" x2="60"   y2="45" style="stroke:black;stroke-width:1"/>
    <line x1="75"  y1="30" x2="90"   y2="30" style="stroke:black;stroke-width:1"/>
    <line x1="90"  y1="30" x2="90"   y2="45" style="stroke:black;stroke-width:1"/>
    <line x1="75"  y1="45" x2="90"   y2="45" style="stroke:black;stroke-width:1"/>
    <line x1="90"  y1="30" x2="90"   y2="45" style="stroke:black;stroke-width:1"/>
    <line x1="105"  y1="30" x2="105"   y2="45" style="stroke:black;stroke-width:1"/>
    <line x1="105"  y1="30" x2="105"   y2="45" style="stroke:black;stroke-width:1"/>
    <line x1="120"  y1="45" x2="135"   y2="45" style="stroke:black;stroke-width:1"/>
    <line x1="135"  y1="30" x2="150"   y2="30" style="stroke:black;stroke-width:1"/>
    <line x1="135"  y1="45" x2="150"   y2="45" style="stroke:black;stroke-width:1"/>
    <line x1="150"  y1="45" x2="165"   y2="45" style="stroke:black;stroke-width:1"/>
    <line x1="165"  y1="30" x2="180"   y2="30" style="stroke:black;stroke-width:1"/>
    <line x1="180"  y1="30" x2="195"   y2="30" style="stroke:black;stroke-width:1"/>
    <line x1="195"  y1="30" x2="195"   y2="45" style="stroke:black;stroke-width:1"/>
    <line x1="180"  y1="45" x2="195"   y2="45" style="stroke:black;stroke-width:1"/>
    <line x1="195"  y1="30" x2="195"   y2="45" style="stroke:black;stroke-width:1"/>
    <line x1="195"  y1="30" x2="210"   y2="30" style="stroke:black;stroke-width:1"/>
    <line x1="210"  y1="30" x2="225"   y2="30" style="stroke:black;stroke-width:1"/>
    <line x1="225"  y1="30" x2="225"   y2="45" style="stroke:black;stroke-width:1"/>
    <line x1="210"  y1="45" x2="225"   y2="45" style="stroke:black;stroke-width:1"/>
    <line x1="0"  y1="45" x2="0"   y2="60" style="stroke:black;stroke-width:1"/>
    <line x1="15"  y1="45" x2="30"   y2="45" style="stroke:black;stroke-width:1"/>
    <line x1="30"  y1="45" x2="30"   y2="60" style="stroke:black;stroke-width:1"/>
    <line x1="30"  y1="45" x2="30"   y2="60" style="stroke:black;stroke-width:1"/>
    <line x1="45"  y1="45" x2="45"   y2="60" style="stroke:black;stroke-width:1"/>
    <line x1="45"  y1="45" x2="45"   y2="60" style="stroke:black;stroke-width:1"/>
    <line x1="75"  y1="45" x2="75"   y2="60" style="stroke:black;stroke-width:1"/>
    <line x1="60"  y1="60" x2="75"   y2="60" style="stroke:black;stroke-width:1"/>
    <line x1="75"  y1="45" x2="75"   y2="60" style="stroke:black;stroke-width:1"/>
    <line x1="75"  y1="45" x2="90"   y2="45" style="stroke:black;stroke-width:1"/>
    <line x1="105"  y1="45" x2="105"   y2="60" style="stroke:black;stroke-width:1"/>
    <line x1="90"  y1="60" x2="105"   y2="60" style="stroke:black;stroke-width:1"/>
    <line x1="105"  y1="45" x2="105"   y2="60" style="stroke:black;stroke-width:1"/>
    <line x1="120"  y1="45" x2="135"   y2="45" style="stroke:black;stroke-width:1"/>
    <line x1="135"  y1="45" x2="135"   y2="60" style="stroke:black;stroke-width:1"/>
    <line x1="120"  y1="60" x2="135"   y2="60" style="stroke:black;stroke-width:1"/>
    <line x1="135"  y1="45" x2="135"   y2="60" style="stroke:black;stroke-width:1"/>
    <line x1="135"  y1="45" x2="150"   y2="45" style="stroke:black;stroke-width:1"/>
    <line x1="150"  y1="45" x2="150"   y2="60" style="stroke:black;stroke-width:1"/>
    <line x1="150"  y1="45" x2="150"   y2="60" style="stroke:black;stroke-width:1"/>
    <line x1="150"  y1="45" x2="165"   y2="45" style="stroke:black;stroke-width:1"/>
    <line x1="150"  y1="60" x2="165"   y2="60" style="stroke:black;stroke-width:1"/>
    <line x1="165"  y1="60" x2="180"   y2="60" style="stroke:black;stroke-width:1"/>
    <line x1="180"  y1="45" x2="195"   y2="45" style="stroke:black;stroke-width:1"/>
    <line x1="180"  y1="60" x2="195"   y2="60" style="stroke:black;stroke-width:1"/>
    <line x1="195"  y1="60" x2="210"   y2="60" style="stroke:black;stroke-width:1"/>
    <line x1="210"  y1="45" x2="225"   y2="45" style="stroke:black;stroke-width:1"/>
    <line x1="225"  y1="45" x2="225"   y2="60" style="stroke:black;stroke-width:1"/>
    <line x1="210"  y1="60" x2="225"   y2="60" style="stroke:black;stroke-width:1"/>
    <line x1="0"  y1="60" x2="0"   y2="75" style="stroke:black;stroke-width:1"/>
    <line x1="15"  y1="60" x2="15"   y2="75" style="stroke:black;stroke-width:1"/>
    <line x1="15"  y1="60" x2="15"   y2="75" style="stroke:black;stroke-width:1"/>
    <line x1="45"  y1="60" x2="45"   y2="75" style="stroke:black;stroke-width:1"/>
    <line x1="30"  y1="75" x2="45"   y2="75" style="stroke:black;stroke-width:1"/>
    <line x1="45"  y1="60" x2="45"   y2="75" style="stroke:black;stroke-width:1"/>
    <line x1="45"  y1="75" x2="60"   y2="75" style="stroke:black;stroke-width:1"/>
    <line x1="60"  y1="60" x2="75"   y2="60" style="stroke:black;stroke-width:1"/>
    <line x1="75"  y1="60" x2="75"   y2="75" style="stroke:black;stroke-width:1"/>
    <line x1="60"  y1="75" x2="75"   y2="75" style="stroke:black;stroke-width:1"/>
    <line x1="75"  y1="60" x2="75"   y2="75" style="stroke:black;stroke-width:1"/>
    <line x1="75"  y1="75" x2="90"   y2="75" style="stroke:black;stroke-width:1"/>
    <line x1="90"  y1="60" x2="105"   y2="60" style="stroke:black;stroke-width:1"/>
    <line x1="90"  y1="75" x2="105"   y2="75" style="stroke:black;stroke-width:1"/>
    <line x1="105"  y1="75" x2="120"   y2="75" style="stroke:black;stroke-width:1"/>
    <line x1="120"  y1="60" x2="135"   y2="60" style="stroke:black;stroke-width:1"/>
    <line x1="120"  y1="75" x2="135"   y2="75" style="stroke:black;stroke-width:1"/>
    <line x1="150"  y1="60" x2="150"   y2="75" style="stroke:black;stroke-width:1"/>
    <line x1="150"  y1="60" x2="150"   y2="75" style="stroke:black;stroke-width:1"/>
    <line x1="150"  y1="60" x2="165"   y2="60" style="stroke:black;stroke-width:1"/>
    <line x1="165"  y1="60" x2="165"   y2="75" style="stroke:black;stroke-width:1"/>
    <line x1="165"  y1="60" x2="165"   y2="75" style="stroke:black;stroke-width:1"/>
    <line x1="165"  y1="60" x2="180"   y2="60" style="stroke:black;stroke-width:1"/>
    <line x1="165"  y1="75" x2="180"   y2="75" style="stroke:black;stroke-width:1"/>
    <line x1="180"  y1="60" x2="195"   y2="60" style="stroke:black;stroke-width:1"/>
    <line x1="195"  y1="60" x2="210"   y2="60" style="stroke:black;stroke-width:1"/>
    <line x1="210"  y1="60" x2="210"   y2="75" style="stroke:black;stroke-width:1"/>
    <line x1="195"  y1="75" x2="210"   y2="75" style="stroke:black;stroke-width:1"/>
    <line x1="210"  y1="60" x2="210"   y2="75" style="stroke:black;stroke-width:1"/>
    <line x1="210"  y1="60" x2="225"   y2="60" style="stroke:black;stroke-width:1"/>
    <line x1="225"  y1="60" x2="225"   y2="75" style="stroke:black;stroke-width:1"/>
    <line x1="0"  y1="75" x2="0"   y2="90" style="stroke:black;stroke-width:1"/>
    <line x1="15"  y1="75" x2="15"   y2="90" style="stroke:black;stroke-width:1"/>
    <line x1="15"  y1="75" x2="15"   y2="90" style="stroke:black;stroke-width:1"/>
    <line x1="15"  y1="90" x2="30"   y2="90" style="stroke:black;stroke-width:1"/>
    <line x1="30"  y1="75" x2="45"   y2="75" style="stroke:black;stroke-width:1"/>
    <line x1="30"  y1="90" x2="45"   y2="90" style="stroke:black;stroke-width:1"/>
    <line x1="45"  y1="75" x2="60"   y2="75" style="stroke:black;stroke-width:1"/>
    <line x1="60"  y1="75" x2="60"   y2="90" style="stroke:black;stroke-width:1"/>
    <line x1="60"  y1="75" x2="60"   y2="90" style="stroke:black;stroke-width:1"/>
    <line x1="60"  y1="75" x2="75"   y2="75" style="stroke:black;stroke-width:1"/>
    <line x1="75"  y1="75" x2="75"   y2="90" style="stroke:black;stroke-width:1"/>
    <line x1="75"  y1="75" x2="75"   y2="90" style="stroke:black;stroke-width:1"/>
    <line x1="75"  y1="75" x2="90"   y2="75" style="stroke:black;stroke-width:1"/>
    <line x1="90"  y1="75" x2="105"   y2="75" style="stroke:black;stroke-width:1"/>
    <line x1="105"  y1="75" x2="105"   y2="90" style="stroke:black;stroke-width:1"/>
    <line x1="90"  y1="90" x2="105"   y2="90" style="stroke:black;stroke-width:1"/>
    <line x1="105"  y1="75" x2="105"   y2="90" style="stroke:black;stroke-width:1"/>
    <line x1="105"  y1="75" x2="120"   y2="75" style="stroke:black;stroke-width:1"/>
    <line x1="120"  y1="75" x2="120"   y2="90" style="stroke:black;stroke-width:1"/>
    <line x1="120"  y1="75" x2="120"   y2="90" style="stroke:black;stroke-width:1"/>
    <line x1="120"  y1="75" x2="135"   y2="75" style="stroke:black;stroke-width:1"/>
    <line x1="135"  y1="75" x2="135"   y2="90" style="stroke:black;stroke-width:1"/>
    <line x1="135"  y1="75" x2="135"   y2="90" style="stroke:black;stroke-width:1"/>
    <line x1="150"  y1="75" x2="150"   y2="90" style="stroke:black;stroke-width:1"/>
    <line x1="135"  y1="90" x2="150"   y2="90" style="stroke:black;stroke-width:1"/>
    <line x1="150"  y1="75" x2="150"   y2="90" style="stroke:black;stroke-width:1"/>
    <line x1="150"  y1="90" x2="165"   y2="90" style="stroke:black;stroke-width:1"/>
    <line x1="165"  y1="75" x2="180"   y2="75" style="stroke:black;stroke-width:1"/>
    <line x1="180"  y1="75" x2="180"   y2="90" style="stroke:black;stroke-width:1"/>
    <line x1="180"  y1="75" x2="180"   y2="90" style="stroke:black;stroke-width:1"/>
    <line x1="195"  y1="75" x2="195"   y2="90" style="stroke:black;stroke-width:1"/>
    <line x1="195"  y1="75" x2="195"   y2="90" style="stroke:black;stroke-width:1"/>
    <line x1="195"  y1="75" x2="210"   y2="75" style="stroke:black;stroke-width:1"/>
    <line x1="210"  y1="75" x2="210"   y2="90" style="stroke:black;stroke-width:1"/>
    <line x1="210"  y1="75" x2="210"   y2="90" style="stroke:black;stroke-width:1"/>
    <line x1="225"  y1="75" x2="225"   y2="90" style="stroke:black;stroke-width:1"/>
    <line x1="0"  y1="90" x2="0"   y2="105" style="stroke:black;stroke-width:1"/>
    <line x1="15"  y1="90" x2="30"   y2="90" style="stroke:black;stroke-width:1"/>
    <line x1="30"  y1="90" x2="30"   y2="105" style="stroke:black;stroke-width:1"/>
    <line x1="15"  y1="105" x2="30"   y2="105" style="stroke:black;stroke-width:1"/>
    <line x1="30"  y1="90" x2="30"   y2="105" style="stroke:black;stroke-width:1"/>
    <line x1="30"  y1="90" x2="45"   y2="90" style="stroke:black;stroke-width:1"/>
    <line x1="45"  y1="105" x2="60"   y2="105" style="stroke:black;stroke-width:1"/>
    <line x1="60"  y1="105" x2="75"   y2="105" style="stroke:black;stroke-width:1"/>
    <line x1="90"  y1="90" x2="90"   y2="105" style="stroke:black;stroke-width:1"/>
    <line x1="75"  y1="105" x2="90"   y2="105" style="stroke:black;stroke-width:1"/>
    <line x1="90"  y1="90" x2="90"   y2="105" style="stroke:black;stroke-width:1"/>
    <line x1="90"  y1="90" x2="105"   y2="90" style="stroke:black;stroke-width:1"/>
    <line x1="105"  y1="90" x2="105"   y2="105" style="stroke:black;stroke-width:1"/>
    <line x1="105"  y1="90" x2="105"   y2="105" style="stroke:black;stroke-width:1"/>
    <line x1="135"  y1="90" x2="150"   y2="90" style="stroke:black;stroke-width:1"/>
    <line x1="150"  y1="90" x2="165"   y2="90" style="stroke:black;stroke-width:1"/>
    <line x1="150"  y1="105" x2="165"   y2="105" style="stroke:black;stroke-width:1"/>
    <line x1="180"  y1="105" x2="195"   y2="105" style="stroke:black;stroke-width:1"/>
    <line x1="195"  y1="105" x2="210"   y2="105" style="stroke:black;stroke-width:1"/>
    <line x1="225"  y1="90" x2="225"   y2="105" style="stroke:black;stroke-width:1"/>
    <line x1="0"  y1="105" x2="0"   y2="120" style="stroke:black;stroke-width:1"/>
    <line x1="15"  y1="105" x2="30"   y2="105" style="stroke:black;stroke-width:1"/>
    <line x1="30"  y1="105" x2="30"   y2="120" style="stroke:black;stroke-width:1"/>
    <line x1="30"  y1="105" x2="30"   y2="120" style="stroke:black;stroke-width:1"/>
    <line x1="45"  y1="105" x2="45"   y2="120" style="stroke:black;stroke-width:1"/>
    <line x1="45"  y1="105" x2="45"   y2="120" style="stroke:black;stroke-width:1"/>
    <line x1="45"  y1="105" x2="60"   y2="105" style="stroke:black;stroke-width:1"/>
    <line x1="60"  y1="105" x2="60"   y2="120" style="stroke:black;stroke-width:1"/>
    <line x1="60"  y1="105" x2="60"   y2="120" style="stroke:black;stroke-width:1"/>
    <line x1="60"  y1="105" x2="75"   y2="105" style="stroke:black;stroke-width:1"/>
    <line x1="75"  y1="105" x2="75"   y2="120" style="stroke:black;stroke-width:1"/>
    <line x1="75"  y1="105" x2="75"   y2="120" style="stroke:black;stroke-width:1"/>
    <line x1="75"  y1="105" x2="90"   y2="105" style="stroke:black;stroke-width:1"/>
    <line x1="75"  y1="120" x2="90"   y2="120" style="stroke:black;stroke-width:1"/>
    <line x1="105"  y1="105" x2="105"   y2="120" style="stroke:black;stroke-width:1"/>
    <line x1="105"  y1="105" x2="105"   y2="120" style="stroke:black;stroke-width:1"/>
    <line x1="120"  y1="105" x2="120"   y2="120" style="stroke:black;stroke-width:1"/>
    <line x1="105"  y1="120" x2="120"   y2="120" style="stroke:black;stroke-width:1"/>
    <line x1="120"  y1="105" x2="120"   y2="120" style="stroke:black;stroke-width:1"/>
    <line x1="135"  y1="105" x2="135"   y2="120" style="stroke:black;stroke-width:1"/>
    <line x1="135"  y1="105" x2="135"   y2="120" style="stroke:black;stroke-width:1"/>
    <line x1="150"  y1="105" x2="150"   y2="120" style="stroke:black;stroke-width:1"/>
    <line x1="135"  y1="120" x2="150"   y2="120" style="stroke:black;stroke-width:1"/>
    <line x1="150"  y1="105" x2="150"   y2="120" style="stroke:black;stroke-width:1"/>
    <line x1="150"  y1="105" x2="165"   y2="105" style="stroke:black;stroke-width:1"/>
    <line x1="165"  y1="105" x2="165"   y2="120" style="stroke:black;stroke-width:1"/>
    <line x1="165"  y1="105" x2="165"   y2="120" style="stroke:black;stroke-width:1"/>
    <line x1="180"  y1="105" x2="180"   y2="120" style="stroke:black;stroke-width:1"/>
    <line x1="165"  y1="120" x2="180"   y2="120" style="stroke:black;stroke-width:1"/>
    <line x1="180"  y1="105" x2="180"   y2="120" style="stroke:black;stroke-width:1"/>
    <line x1="180"  y1="105" x2="195"   y2="105" style="stroke:black;stroke-width:1"/>
    <line x1="180"  y1="120" x2="195"   y2="120" style="stroke:black;stroke-width:1"/>
    <line x1="195"  y1="105" x2="210"   y2="105" style="stroke:black;stroke-width:1"/>
    <line x1="225"  y1="105" x2="225"   y2="120" style="stroke:black;stroke-width:1"/>
    <line x1="0"  y1="120" x2="0"   y2="135" style="stroke:black;stroke-width:1"/>
    <line x1="15"  y1="120" x2="15"   y2="135" style="stroke:black;stroke-width:1"/>
    <line x1="0"  y1="135" x2="15"   y2="135" style="stroke:black;stroke-width:1"/>
    <line x1="15"  y1="120" x2="15"   y2="135" style="stroke:black;stroke-width:1"/>
    <line x1="30"  y1="120" x2="30"   y2="135" style="stroke:black;stroke-width:1"/>
    <line x1="15"  y1="135" x2="30"   y2="135" style="stroke:black;stroke-width:1"/>
    <line x1="30"  y1="120" x2="30"   y2="135" style="stroke:black;stroke-width:1"/>
    <line x1="30"  y1="135" x2="45"   y2="135" style="stroke:black;stroke-width:1"/>
    <line x1="60"  y1="120" x2="60"   y2="135" style="stroke:black;stroke-width:1"/>
    <line x1="60"  y1="120" x2="60"   y2="135" style="stroke:black;stroke-width:1"/>
    <line x1="60"  y1="135" x2="75"   y2="135" style="stroke:black;stroke-width:1"/>
    <line x1="75"  y1="120" x2="90"   y2="120" style="stroke:black;stroke-width:1"/>
    <line x1="105"  y1="120" x2="120"   y2="120" style="stroke:black;stroke-width:1"/>
    <line x1="120"  y1="120" x2="120"   y2="135" style="stroke:black;stroke-width:1"/>
    <line x1="120"  y1="120" x2="120"   y2="135" style="stroke:black;stroke-width:1"/>
    <line x1="135"  y1="120" x2="150"   y2="120" style="stroke:black;stroke-width:1"/>
    <line x1="135"  y1="135" x2="150"   y2="135" style="stroke:black;stroke-width:1"/>
    <line x1="165"  y1="120" x2="165"   y2="135" style="stroke:black;stroke-width:1"/>
    <line x1="165"  y1="120" x2="165"   y2="135" style="stroke:black;stroke-width:1"/>
    <line x1="165"  y1="120" x2="180"   y2="120" style="stroke:black;stroke-width:1"/>
    <line x1="180"  y1="120" x2="180"   y2="135" style="stroke:black;stroke-width:1"/>
    <line x1="180"  y1="120" x2="180"   y2="135" style="stroke:black;stroke-width:1"/>
    <line x1="180"  y1="120" x2="195"   y2="120" style="stroke:black;stroke-width:1"/>
    <line x1="195"  y1="120" x2="195"   y2="135" style="stroke:black;stroke-width:1"/>
    <line x1="195"  y1="120" x2="195"   y2="135" style="stroke:black;stroke-width:1"/>
    <line x1="210"  y1="120" x2="210"   y2="135" style="stroke:black;stroke-width:1"/>
    <line x1="210"  y1="120" x2="210"   y2="135" style="stroke:black;stroke-width:1"/>
    <line x1="225"  y1="120" x2="225"   y2="135" style="stroke:black;stroke-width:1"/>
    <line x1="0"  y1="135" x2="0"   y2="150" style="stroke:black;stroke-width:1"/>
    <line x1="0"  y1="135" x2="15"   y2="135" style="stroke:black;stroke-width:1"/>
    <line x1="15"  y1="135" x2="30"   y2="135" style="stroke:black;stroke-width:1"/>
    <line x1="30"  y1="135" x2="30"   y2="150" style="stroke:black;stroke-width:1"/>
    <line x1="30"  y1="135" x2="30"   y2="150" style="stroke:black;stroke-width:1"/>
    <line x1="30"  y1="135" x2="45"   y2="135" style="stroke:black;stroke-width:1"/>
    <line x1="45"  y1="135" x2="45"   y2="150" style="stroke:black;stroke-width:1"/>
    <line x1="45"  y1="135" x2="45"   y2="150" style="stroke:black;stroke-width:1"/>
    <line x1="45"  y1="150" x2="60"   y2="150" style="stroke:black;stroke-width:1"/>
    <line x1="60"  y1="135" x2="75"   y2="135" style="stroke:black;stroke-width:1"/>
    <line x1="90"  y1="135" x2="90"   y2="150" style="stroke:black;stroke-width:1"/>
    <line x1="75"  y1="150" x2="90"   y2="150" style="stroke:black;stroke-width:1"/>
    <line x1="90"  y1="135" x2="90"   y2="150" style="stroke:black;stroke-width:1"/>
    <line x1="105"  y1="135" x2="105"   y2="150" style="stroke:black;stroke-width:1"/>
    <line x1="90"  y1="150" x2="105"   y2="150" style="stroke:black;stroke-width:1"/>
    <line x1="105"  y1="135" x2="105"   y2="150" style="stroke:black;stroke-width:1"/>
    <line x1="120"  y1="135" x2="120"   y2="150" style="stroke:black;stroke-width:1"/>
    <line x1="120"  y1="135" x2="120"   y2="150" style="stroke:black;stroke-width:1"/>
    <line x1="120"  y1="150" x2="135"   y2="150" style="stroke:black;stroke-width:1"/>
    <line x1="135"  y1="135" x2="150"   y2="135" style="stroke:black;stroke-width:1"/>
    <line x1="150"  y1="135" x2="150"   y2="150" style="stroke:black;stroke-width:1"/>
    <line x1="150"  y1="135" x2="150"   y2="150" style="stroke:black;stroke-width:1"/>
    <line x1="165"  y1="135" x2="165"   y2="150" style="stroke:black;stroke-width:1"/>
    <line x1="150"  y1="150" x2="165"   y2="150" style="stroke:black;stroke-width:1"/>
    <line x1="165"  y1="135" x2="165"   y2="150" style="stroke:black;stroke-width:1"/>
    <line x1="195"  y1="135" x2="195"   y2="150" style="stroke:black;stroke-width:1"/>
    <line x1="180"  y1="150" x2="195"   y2="150" style="stroke:black;stroke-width:1"/>
    <line x1="195"  y1="135" x2="195"   y2="150" style="stroke:black;stroke-width:1"/>
    <line x1="210"  y1="135" x2="210"   y2="150" style="stroke:black;stroke-width:1"/>
    <line x1="210"  y1="135" x2="210"   y2="150" style="stroke:black;stroke-width:1"/>
    <line x1="225"  y1="135" x2="225"   y2="150" style="stroke:black;stroke-width:1"/>
    <line x1="210"  y1="150" x2="225"   y2="150" style="stroke:black;stroke-width:1"/>
    <line x1="0"  y1="150" x2="0"   y2="165" style="stroke:black;stroke-width:1"/>
    <line x1="15"  y1="150" x2="15"   y2="165" style="stroke:black;stroke-width:1"/>
    <line x1="0"  y1="165" x2="15"   y2="165" style="stroke:black;stroke-width:1"/>
    <line x1="15"  y1="150" x2="15"   y2="165" style="stroke:black;stroke-width:1"/>
    <line x1="15"  y1="165" x2="30"   y2="165" style="stroke:black;stroke-width:1"/>
    <line x1="45"  y1="150" x2="45"   y2="165" style="stroke:black;stroke-width:1"/>
    <line x1="45"  y1="150" x2="45"   y2="165" style="stroke:black;stroke-width:1"/>
    <line x1="45"  y1="150" x2="60"   y2="150" style="stroke:black;stroke-width:1"/>
    <line x1="60"  y1="150" x2="60"   y2="165" style="stroke:black;stroke-width:1"/>
    <line x1="60"  y1="150" x2="60"   y2="165" style="stroke:black;stroke-width:1"/>
    <line x1="60"  y1="165" x2="75"   y2="165" style="stroke:black;stroke-width:1"/>
    <line x1="75"  y1="150" x2="90"   y2="150" style="stroke:black;stroke-width:1"/>
    <line x1="90"  y1="150" x2="90"   y2="165" style="stroke:black;stroke-width:1"/>
    <line x1="90"  y1="150" x2="90"   y2="165" style="stroke:black;stroke-width:1"/>
    <line x1="90"  y1="150" x2="105"   y2="150" style="stroke:black;stroke-width:1"/>
    <line x1="105"  y1="150" x2="105"   y2="165" style="stroke:black;stroke-width:1"/>
    <line x1="105"  y1="150" x2="105"   y2="165" style="stroke:black;stroke-width:1"/>
    <line x1="120"  y1="150" x2="120"   y2="165" style="stroke:black;stroke-width:1"/>
    <line x1="105"  y1="165" x2="120"   y2="165" style="stroke:black;stroke-width:1"/>
    <line x1="120"  y1="150" x2="120"   y2="165" style="stroke:black;stroke-width:1"/>
    <line x1="120"  y1="150" x2="135"   y2="150" style="stroke:black;stroke-width:1"/>
    <line x1="150"  y1="150" x2="150"   y2="165" style="stroke:black;stroke-width:1"/>
    <line x1="150"  y1="150" x2="150"   y2="165" style="stroke:black;stroke-width:1"/>
    <line x1="150"  y1="150" x2="165"   y2="150" style="stroke:black;stroke-width:1"/>
    <line x1="180"  y1="150" x2="180"   y2="165" style="stroke:black;stroke-width:1"/>
    <line x1="180"  y1="150" x2="180"   y2="165" style="stroke:black;stroke-width:1"/>
    <line x1="180"  y1="150" x2="195"   y2="150" style="stroke:black;stroke-width:1"/>
    <line x1="180"  y1="165" x2="195"   y2="165" style="stroke:black;stroke-width:1"/>
    <line x1="195"  y1="165" x2="210"   y2="165" style="stroke:black;stroke-width:1"/>
    <line x1="210"  y1="150" x2="225"   y2="150" style="stroke:black;stroke-width:1"/>
    <line x1="225"  y1="150" x2="225"   y2="165" style="stroke:black;stroke-width:1"/>
    <line x1="210"  y1="165" x2="225"   y2="165" style="stroke:black;stroke-width:1"/>
    <line x1="0"  y1="165" x2="0"   y2="180" style="stroke:black;stroke-width:1"/>
    <line x1="0"  y1="165" x2="15"   y2="165" style="stroke:black;stroke-width:1"/>
    <line x1="15"  y1="165" x2="15"   y2="180" style="stroke:black;stroke-width:1"/>
    <line x1="15"  y1="165" x2="15"   y2="180" style="stroke:black;stroke-width:1"/>
    <line x1="15"  y1="165" x2="30"   y2="165" style="stroke:black;stroke-width:1"/>
    <line x1="30"  y1="165" x2="30"   y2="180" style="stroke:black;stroke-width:1"/>
    <line x1="30"  y1="165" x2="30"   y2="180" style="stroke:black;stroke-width:1"/>
    <line x1="45"  y1="180" x2="60"   y2="180" style="stroke:black;stroke-width:1"/>
    <line x1="60"  y1="165" x2="75"   y2="165" style="stroke:black;stroke-width:1"/>
    <line x1="75"  y1="180" x2="90"   y2="180" style="stroke:black;stroke-width:1"/>
    <line x1="105"  y1="165" x2="120"   y2="165" style="stroke:black;stroke-width:1"/>
    <line x1="120"  y1="165" x2="120"   y2="180" style="stroke:black;stroke-width:1"/>
    <line x1="120"  y1="165" x2="120"   y2="180" style="stroke:black;stroke-width:1"/>
    <line x1="135"  y1="165" x2="135"   y2="180" style="stroke:black;stroke-width:1"/>
    <line x1="120"  y1="180" x2="135"   y2="180" style="stroke:black;stroke-width:1"/>
    <line x1="135"  y1="165" x2="135"   y2="180" style="stroke:black;stroke-width:1"/>
    <line x1="165"  y1="165" x2="165"   y2="180" style="stroke:black;stroke-width:1"/>
    <line x1="150"  y1="180" x2="165"   y2="180" style="stroke:black;stroke-width:1"/>
    <line x1="165"  y1="165" x2="165"   y2="180" style="stroke:black;stroke-width:1"/>
    <line x1="180"  y1="165" x2="195"   y2="165" style="stroke:black;stroke-width:1"/>
    <line x1="195"  y1="165" x2="195"   y2="180" style="stroke:black;stroke-width:1"/>
    <line x1="195"  y1="165" x2="195"   y2="180" style="stroke:black;stroke-width:1"/>
    <line x1="195"  y1="165" x2="210"   y2="165" style="stroke:black;stroke-width:1"/>
    <line x1="210"  y1="165" x2="210"   y2="180" style="stroke:black;stroke-width:1"/>
    <line x1="210"  y1="165" x2="210"   y2="180" style="stroke:black;stroke-width:1"/>
    <line x1="210"  y1="165" x2="225"   y2="165" style="stroke:black;stroke-width:1"/>
    <line x1="225"  y1="165" x2="225"   y2="180" style="stroke:black;stroke-width:1"/>
    <line x1="0"  y1="180" x2="0"   y2="195" style="stroke:black;stroke-width:1"/>
    <line x1="0"  y1="195" x2="15"   y2="195" style="stroke:black;stroke-width:1"/>
    <line x1="45"  y1="180" x2="45"   y2="195" style="stroke:black;stroke-width:1"/>
    <line x1="30"  y1="195" x2="45"   y2="195" style="stroke:black;stroke-width:1"/>
    <line x1="45"  y1="180" x2="45"   y2="195" style="stroke:black;stroke-width:1"/>
    <line x1="45"  y1="180" x2="60"   y2="180" style="stroke:black;stroke-width:1"/>
    <line x1="75"  y1="180" x2="75"   y2="195" style="stroke:black;stroke-width:1"/>
    <line x1="75"  y1="180" x2="75"   y2="195" style="stroke:black;stroke-width:1"/>
    <line x1="75"  y1="180" x2="90"   y2="180" style="stroke:black;stroke-width:1"/>
    <line x1="75"  y1="195" x2="90"   y2="195" style="stroke:black;stroke-width:1"/>
    <line x1="105"  y1="180" x2="105"   y2="195" style="stroke:black;stroke-width:1"/>
    <line x1="90"  y1="195" x2="105"   y2="195" style="stroke:black;stroke-width:1"/>
    <line x1="105"  y1="180" x2="105"   y2="195" style="stroke:black;stroke-width:1"/>
    <line x1="105"  y1="195" x2="120"   y2="195" style="stroke:black;stroke-width:1"/>
    <line x1="120"  y1="180" x2="135"   y2="180" style="stroke:black;stroke-width:1"/>
    <line x1="150"  y1="180" x2="150"   y2="195" style="stroke:black;stroke-width:1"/>
    <line x1="135"  y1="195" x2="150"   y2="195" style="stroke:black;stroke-width:1"/>
    <line x1="150"  y1="180" x2="150"   y2="195" style="stroke:black;stroke-width:1"/>
    <line x1="150"  y1="180" x2="165"   y2="180" style="stroke:black;stroke-width:1"/>
    <line x1="180"  y1="180" x2="180"   y2="195" style="stroke:black;stroke-width:1"/>
    <line x1="180"  y1="180" x2="180"   y2="195" style="stroke:black;stroke-width:1"/>
    <line x1="180"  y1="195" x2="195"   y2="195" style="stroke:black;stroke-width:1"/>
    <line x1="195"  y1="195" x2="210"   y2="195" style="stroke:black;stroke-width:1"/>
    <line x1="225"  y1="180" x2="225"   y2="195" style="stroke:black;stroke-width:1"/>
    <line x1="210"  y1="195" x2="225"   y2="195" style="stroke:black;stroke-width:1"/>
    <line x1="0"  y1="195" x2="0"   y2="210" style="stroke:black;stroke-width:1"/>
    <line x1="0"  y1="195" x2="15"   y2="195" style="stroke:black;stroke-width:1"/>
    <line x1="30"  y1="195" x2="45"   y2="195" style="stroke:black;stroke-width:1"/>
    <line x1="45"  y1="195" x2="45"   y2="210" style="stroke:black;stroke-width:1"/>
    <line x1="45"  y1="195" x2="45"   y2="210" style="stroke:black;stroke-width:1"/>
    <line x1="60"  y1="195" x2="60"   y2="210" style="stroke:black;stroke-width:1"/>
    <line x1="45"  y1="210" x2="60"   y2="210" style="stroke:black;stroke-width:1"/>
    <line x1="60"  y1="195" x2="60"   y2="210" style="stroke:black;stroke-width:1"/>
    <line x1="75"  y1="195" x2="90"   y2="195" style="stroke:black;stroke-width:1"/>
    <line x1="90"  y1="195" x2="105"   y2="195" style="stroke:black;stroke-width:1"/>
    <line x1="105"  y1="195" x2="105"   y2="210" style="stroke:black;stroke-width:1"/>
    <line x1="90"  y1="210" x2="105"   y2="210" style="stroke:black;stroke-width:1"/>
    <line x1="105"  y1="195" x2="105"   y2="210" style="stroke:black;stroke-width:1"/>
    <line x1="105"  y1="195" x2="120"   y2="195" style="stroke:black;stroke-width:1"/>
    <line x1="105"  y1="210" x2="120"   y2="210" style="stroke:black;stroke-width:1"/>
    <line x1="135"  y1="195" x2="135"   y2="210" style="stroke:black;stroke-width:1"/>
    <line x1="135"  y1="195" x2="135"   y2="210" style="stroke:black;stroke-width:1"/>
    <line x1="135"  y1="195" x2="150"   y2="195" style="stroke:black;stroke-width:1"/>
    <line x1="135"  y1="210" x2="150"   y2="210" style="stroke:black;stroke-width:1"/>
    <line x1="165"  y1="195" x2="165"   y2="210" style="stroke:black;stroke-width:1"/>
    <line x1="150"  y1="210" x2="165"   y2="210" style="stroke:black;stroke-width:1"/>
    <line x1="165"  y1="195" x2="165"   y2="210" style="stroke:black;stroke-width:1"/>
    <line x1="180"  y1="195" x2="180"   y2="210" style="stroke:black;stroke-width:1"/>
    <line x1="180"  y1="195" x2="180"   y2="210" style="stroke:black;stroke-width:1"/>
    <line x1="180"  y1="195" x2="195"   y2="195" style="stroke:black;stroke-width:1"/>
    <line x1="180"  y1="210" x2="195"   y2="210" style="stroke:black;stroke-width:1"/>
    <line x1="195"  y1="195" x2="210"   y2="195" style="stroke:black;stroke-width:1"/>
    <line x1="210"  y1="195" x2="210"   y2="210" style="stroke:black;stroke-width:1"/>
    <line x1="210"  y1="195" x2="210"   y2="210" style="stroke:black;stroke-width:1"/>
    <line x1="210"  y1="195" x2="225"   y2="195" style="stroke:black;stroke-width:1"/>
    <line x1="225"  y1="195" x2="225"   y2="210" style="stroke:black;stroke-width:1"/>
    <line x1="0"  y1="210" x2="0"   y2="225" style="stroke:black;stroke-width:1"/>
    <line x1="15"  y1="210" x2="15"   y2="225" style="stroke:black;stroke-width:1"/>
    <line x1="0"  y1="225" x2="15"   y2="225" style="stroke:black;stroke-width:1"/>
    <line x1="15"  y1="210" x2="15"   y2="225" style="stroke:black;stroke-width:1"/>
    <line x1="30"  y1="210" x2="30"   y2="225" style="stroke:black;stroke-width:1"/>
    <line x1="15"  y1="225" x2="30"   y2="225" style="stroke:black;stroke-width:1"/>
    <line x1="30"  y1="210" x2="30"   y2="225" style="stroke:black;stroke-width:1"/>
    <line x1="45"  y1="210" x2="45"   y2="225" style="stroke:black;stroke-width:1"/>
    <line x1="30"  y1="225" x2="45"   y2="225" style="stroke:black;stroke-width:1"/>
    <line x1="45"  y1="210" x2="45"   y2="225" style="stroke:black;stroke-width:1"/>
    <line x1="45"  y1="210" x2="60"   y2="210" style="stroke:black;stroke-width:1"/>
    <line x1="45"  y1="225" x2="60"   y2="225" style="stroke:black;stroke-width:1"/>
    <line x1="75"  y1="210" x2="75"   y2="225" style="stroke:black;stroke-width:1"/>
    <line x1="60"  y1="225" x2="75"   y2="225" style="stroke:black;stroke-width:1"/>
    <line x1="75"  y1="210" x2="75"   y2="225" style="stroke:black;stroke-width:1"/>
    <line x1="75"  y1="225" x2="90"   y2="225" style="stroke:black;stroke-width:1"/>
    <line x1="90"  y1="210" x2="105"   y2="210" style="stroke:black;stroke-width:1"/>
    <line x1="90"  y1="225" x2="105"   y2="225" style="stroke:black;stroke-width:1"/>
    <line x1="105"  y1="210" x2="120"   y2="210" style="stroke:black;stroke-width:1"/>
    <line x1="120"  y1="210" x2="120"   y2="225" style="stroke:black;stroke-width:1"/>
    <line x1="105"  y1="225" x2="120"   y2="225" style="stroke:black;stroke-width:1"/>
    <line x1="120"  y1="210" x2="120"   y2="225" style="stroke:black;stroke-width:1"/>
    <line x1="120"  y1="225" x2="135"   y2="225" style="stroke:black;stroke-width:1"/>
    <line x1="135"  y1="210" x2="150"   y2="210" style="stroke:black;stroke-width:1"/>
    <line x1="150"  y1="210" x2="150"   y2="225" style="stroke:black;stroke-width:1"/>
    <line x1="135"  y1="225" x2="150"   y2="225" style="stroke:black;stroke-width:1"/>
    <line x1="150"  y1="210" x2="150"   y2="225" style="stroke:black;stroke-width:1"/>
    <line x1="150"  y1="210" x2="165"   y2="210" style="stroke:black;stroke-width:1"/>
    <line x1="150"  y1="225" x2="165"   y2="225" style="stroke:black;stroke-width:1"/>
    <line x1="165"  y1="225" x2="180"   y2="225" style="stroke:black;stroke-width:1"/>
    <line x1="180"  y1="210" x2="195"   y2="210" style="stroke:black;stroke-width:1"/>
    <line x1="180"  y1="225" x2="195"   y2="225" style="stroke:black;stroke-width:1"/>
    <line x1="195"  y1="225" x2="210"   y2="225" style="stroke:black;stroke-width:1"/>
    <line x1="225"  y1="210" x2="225"   y2="225" style="stroke:black;stroke-width:1"/>
    <line x1="210"  y1="225" x2="225"   y2="225" style="stroke:black;stroke-width:1"/>
</svg>
